# xmcd
#
# Track frame offsets: 
#        150
#        27042
#        81980
#        126620
#
# Disc length: 2784 seconds
#
# Revision: 6
# Processed by: cddbd v1.5.2PL0 Copyright (c) Steve Scherf et al.
# Submitted via: ExactAudioCopyFreeDBPlugin 1.0
#
DISCID=2f0ade04
DTITLE=Wolves In The Throne Room - Two Hunters
DYEAR=2007
DGENRE=Metal
TTITLE0=Dea Artio
TTITLE1=Vastness And Sorrow
TTITLE2=Cleansing
TTITLE3=I Will Lay Down My Bones Among The Rocks And Roots
EXTD=
EXTT0=
EXTT1=
EXTT2=
EXTT3=
PLAYORDER=
